<?xml version="1.0" standalone="no"?><!DOCTYPE svg PUBLIC "-//W3C//DTD SVG 1.1//EN" "http://www.w3.org/Graphics/SVG/1.1/DTD/svg11.dtd"><svg t="1724606736862" class="icon" viewBox="0 0 1024 1024" version="1.1" xmlns="http://www.w3.org/2000/svg" p-id="1772" xmlns:xlink="http://www.w3.org/1999/xlink" width="200" height="200"><path d="M505.54740977 207.2508986c85.46966315 0 154.75353599 68.1541264 154.75353599 152.2116065 0 84.07920599-69.28387284 152.23333239-154.75353599 152.2333324-85.46966315 0-154.75353599-68.1541264-154.75353599-152.2333324C350.79387378 275.38329911 420.09947252 207.2508986 505.54740977 207.2508986L505.54740977 207.2508986zM505.54740977 207.2508986c85.46966315 0 154.75353599 68.1541264 154.75353599 152.2116065 0 84.07920599-69.28387284 152.23333239-154.75353599 152.2333324-85.46966315 0-154.75353599-68.1541264-154.75353599-152.2333324C350.79387378 275.38329911 420.09947252 207.2508986 505.54740977 207.2508986L505.54740977 207.2508986zM447.51754951 562.44752359l128.98662687 0c110.41098833 0 199.89994169 88.01159262 199.89994168 196.61933183l1e-8 12.66619564c0 42.80000926-89.51067924 44.42945123-199.89994169 44.42945123l-128.98662687 0c-110.41098833 0-199.89994169-0.06517767-199.89994168-44.42945123l0-12.66619563C247.61760783 650.45911622 337.10656118 562.44752359 447.51754951 562.44752359L447.51754951 562.44752359zM447.51754951 562.44752359" fill="#ffffff" p-id="1773"></path></svg>