<?xml version="1.0" standalone="no"?><!DOCTYPE svg PUBLIC "-//W3C//DTD SVG 1.1//EN" "http://www.w3.org/Graphics/SVG/1.1/DTD/svg11.dtd"><svg t="1725732799026" class="icon" viewBox="0 0 1024 640" version="1.1" xmlns="http://www.w3.org/2000/svg" p-id="930" xmlns:xlink="http://www.w3.org/1999/xlink" width="200" height="125"><path d="M29.16266667 516.14933336a482.83733333 105.62133333 0 1 0 965.67466666 0 482.83733333 105.62133333 0 1 0-965.67466666 0Z" fill="#F5F5F5" p-id="931"></path><path d="M859.04 358.17600003h-694.08c-4.416 0-8-3.584-8-8V210.77333336c0-1.952 0.71466667-3.82933333 2.00533333-5.29066666l152.66133334-173.09866667c8.98133333-14.09066667 21.99466667-22.15466667 35.808-22.15466667h329.14133333c13.81333333 0 26.82666667 8.07466667 35.808 22.176l152.66133333 173.06666667a7.9872 7.9872 0 0 1 2.00533334 5.29066667v139.41333333c-0.01066667 4.416-3.59466667 8-8.01066667 8z m-686.08-16h678.06933333V213.78133336L699.94666667 42.5066667c-0.29866667-0.33066667-0.56533333-0.69333333-0.8-1.06666667-6.00533333-9.664-14.22933333-15.2-22.58133334-15.2H347.424c-8.352 0-16.576 5.536-22.58133333 15.18933333-0.23466667 0.37333333-0.50133333 0.736-0.78933334 1.06666667l-151.09333333 171.30666667v128.37333333z" fill="#D9D9D9" p-id="932"></path><path d="M657.04533333 258.6026667c0-24.21333333 14.99733333-44.21333333 33.6-44.224h168.384v273.664c0 32.032-19.91466667 58.28266667-44.512 58.28266666H209.472c-24.59733333 0-44.512-26.272-44.512-58.28266666V214.3786667h168.384c18.60266667 0 33.6 19.95733333 33.6 44.18133333v0.33066667c0 24.21333333 15.168 43.776 33.74933333 43.776h222.58133334c18.592 0 33.74933333-19.73333333 33.74933333-43.95733334v-0.10666666z" fill="#FAFAFA" p-id="933"></path><path d="M814.528 554.32533336H209.472c-28.96 0-52.512-29.73866667-52.512-66.28266666V214.3786667c0-4.416 3.584-8 8-8h168.384c22.944 0 41.6 23.40266667 41.6 52.18133333v0.33066667c0 19.392 11.79733333 35.776 25.74933333 35.776h222.58133334c13.96266667 0 25.74933333-16.46933333 25.74933333-35.95733334v-0.10666666c0-28.77866667 18.656-52.20266667 41.6-52.224h168.39466667c4.416 0 8 3.584 8 8v273.664c0.02133333 36.544-23.54133333 66.28266667-52.49066667 66.28266666z m-641.568-331.94666666v265.664c0 27.73333333 16.37333333 50.28266667 36.512 50.28266666h605.04533333c20.128 0 36.512-22.56 36.512-50.28266666V222.3786667H690.64533333c-13.87733333 0.01066667-25.6 16.59733333-25.6 36.224v0.10666666c0 28.65066667-18.73066667 51.95733333-41.74933333 51.95733334H400.704c-23.01866667 0-41.74933333-23.22133333-41.74933333-51.776v-0.33066667c0-19.616-11.72266667-36.18133333-25.6-36.18133333H172.96z" fill="#D9D9D9" p-id="934"></path></svg>