<?xml version="1.0" standalone="no"?><!DOCTYPE svg PUBLIC "-//W3C//DTD SVG 1.1//EN" "http://www.w3.org/Graphics/SVG/1.1/DTD/svg11.dtd"><svg t="1724606741581" class="icon" viewBox="0 0 1024 1024" version="1.1" xmlns="http://www.w3.org/2000/svg" p-id="1918" xmlns:xlink="http://www.w3.org/1999/xlink" width="200" height="200"><path d="M775.42645287 273.01517678c22.49784116 0 40.7360494 18.23820826 40.73604942 40.7360494v396.49754764c0 22.49784116-18.23820826 40.7360494-40.73604941 40.7360494H248.57354713c-22.49784116 0-40.7360494-18.23820826-40.73604942-40.7360494V313.75122618c0-22.49784116 18.23820826-40.7360494 40.73604941-40.7360494h526.85290575zM625.64746745 411.88369029c-26.03712492-11.58329565-56.53416832 0.13375003-68.11746396 26.17087495L496.46598649 575.31739948l-5.44844662 10.89825108a25.12056382 25.12056382 0 0 1-11.23432348 11.23432349c-12.40887958 6.20477926-27.49819122 1.17455609-33.70229156-11.23432349L435.45017382 564.95686423h-0.00067894l-7.01203197-14.02610074a58.3883375 58.3883375 0 0 0-26.11180769-26.11180767c-28.84315979-14.42124043-63.91486153-2.73067318-78.33678089 26.11180768L258.07862532 682.75194046h138.64582312c0.58999378 0.21929573 1.22751295 0.33946708 1.89354736 0.33946707h362.2113727L651.81902134 438.05456524a51.59899593 51.59899593 0 0 0-26.17155389-26.17087495zM406.08627152 335.4771192c-35.62163841 0-64.4987449 28.8771065-64.4987449 64.49874491s28.8771065 64.4987449 64.4987449 64.49874491 64.4987449-28.8771065 64.49874491-64.49874491-28.8771065-64.4987449-64.49874491-64.49874491z" fill="#ffffff" p-id="1919"></path></svg>